<svg width="269" height="55" viewBox="0 0 269 55" fill="none" xmlns="http://www.w3.org/2000/svg">
<path d="M17.892 15.136C17.724 14.968 17.412 14.74 16.956 14.452C16.524 14.164 15.984 13.888 15.336 13.624C14.712 13.336 14.028 13.096 13.284 12.904C12.54 12.712 11.784 12.616 11.016 12.616C9.648 12.616 8.628 12.868 7.956 13.372C7.284 13.876 6.948 14.584 6.948 15.496C6.948 16.024 7.068 16.468 7.308 16.828C7.572 17.164 7.944 17.464 8.424 17.728C8.904 17.992 9.504 18.232 10.224 18.448C10.968 18.664 11.82 18.892 12.78 19.132C14.028 19.468 15.156 19.828 16.164 20.212C17.196 20.596 18.06 21.076 18.756 21.652C19.476 22.228 20.028 22.924 20.412 23.74C20.796 24.532 20.988 25.516 20.988 26.692C20.988 28.06 20.724 29.236 20.196 30.22C19.692 31.18 18.996 31.96 18.108 32.56C17.244 33.16 16.236 33.604 15.084 33.892C13.956 34.156 12.768 34.288 11.52 34.288C9.6 34.288 7.704 34 5.832 33.424C3.96 32.848 2.28 32.032 0.792 30.976L2.988 26.692C3.204 26.908 3.588 27.196 4.14 27.556C4.716 27.892 5.388 28.24 6.156 28.6C6.924 28.936 7.776 29.224 8.712 29.464C9.648 29.704 10.608 29.824 11.592 29.824C14.328 29.824 15.696 28.948 15.696 27.196C15.696 26.644 15.54 26.176 15.228 25.792C14.916 25.408 14.472 25.072 13.896 24.784C13.32 24.496 12.624 24.232 11.808 23.992C10.992 23.752 10.08 23.488 9.072 23.2C7.848 22.864 6.78 22.504 5.868 22.12C4.98 21.712 4.236 21.244 3.636 20.716C3.036 20.164 2.58 19.54 2.268 18.844C1.98 18.124 1.836 17.272 1.836 16.288C1.836 14.992 2.076 13.84 2.556 12.832C3.036 11.824 3.696 10.984 4.536 10.312C5.4 9.64 6.396 9.136 7.524 8.8C8.652 8.44 9.864 8.26 11.16 8.26C12.96 8.26 14.616 8.548 16.128 9.124C17.64 9.676 18.96 10.336 20.088 11.104L17.892 15.136ZM30.0341 34.36C28.0901 34.36 26.6141 33.736 25.6061 32.488C24.5981 31.24 24.0941 29.392 24.0941 26.944V15.136H28.9181V25.9C28.9181 28.804 29.9621 30.256 32.0501 30.256C32.9861 30.256 33.8861 29.98 34.7501 29.428C35.6381 28.852 36.3581 27.988 36.9101 26.836V15.136H41.7341V28.456C41.7341 28.96 41.8181 29.32 41.9861 29.536C42.1781 29.752 42.4781 29.872 42.8861 29.896V34C42.4061 34.096 41.9981 34.156 41.6621 34.18C41.3501 34.204 41.0621 34.216 40.7981 34.216C39.9341 34.216 39.2261 34.024 38.6741 33.64C38.1461 33.232 37.8341 32.68 37.7381 31.984L37.6301 30.472C36.7901 31.768 35.7101 32.74 34.3901 33.388C33.0701 34.036 31.6181 34.36 30.0341 34.36ZM53.656 34.36C52.072 34.36 50.524 34.108 49.012 33.604C47.5 33.1 46.204 32.38 45.124 31.444L46.924 28.42C48.076 29.236 49.192 29.86 50.272 30.292C51.376 30.7 52.468 30.904 53.548 30.904C54.508 30.904 55.264 30.724 55.816 30.364C56.368 30.004 56.644 29.488 56.644 28.816C56.644 28.144 56.32 27.652 55.672 27.34C55.024 27.028 53.968 26.668 52.504 26.26C51.28 25.924 50.236 25.6 49.372 25.288C48.508 24.976 47.812 24.628 47.284 24.244C46.756 23.836 46.372 23.38 46.132 22.876C45.892 22.348 45.772 21.724 45.772 21.004C45.772 20.044 45.952 19.18 46.312 18.412C46.696 17.644 47.224 16.996 47.896 16.468C48.568 15.916 49.348 15.496 50.236 15.208C51.148 14.92 52.132 14.776 53.188 14.776C54.604 14.776 55.924 14.98 57.148 15.388C58.396 15.796 59.536 16.456 60.568 17.368L58.624 20.284C57.664 19.564 56.728 19.036 55.816 18.7C54.928 18.364 54.04 18.196 53.152 18.196C52.336 18.196 51.652 18.364 51.1 18.7C50.548 19.036 50.272 19.576 50.272 20.32C50.272 20.656 50.332 20.932 50.452 21.148C50.596 21.364 50.812 21.556 51.1 21.724C51.388 21.892 51.76 22.06 52.216 22.228C52.696 22.372 53.284 22.528 53.98 22.696C55.276 23.032 56.38 23.368 57.292 23.704C58.228 24.04 58.984 24.424 59.56 24.856C60.16 25.288 60.592 25.792 60.856 26.368C61.144 26.92 61.288 27.592 61.288 28.384C61.288 30.232 60.604 31.696 59.236 32.776C57.868 33.832 56.008 34.36 53.656 34.36ZM73.1706 34.36C71.6586 34.36 70.2906 34.108 69.0666 33.604C67.8426 33.076 66.7986 32.368 65.9346 31.48C65.0706 30.592 64.3986 29.56 63.9186 28.384C63.4626 27.208 63.2346 25.972 63.2346 24.676C63.2346 23.332 63.4626 22.072 63.9186 20.896C64.3746 19.696 65.0346 18.652 65.8986 17.764C66.7626 16.852 67.8066 16.132 69.0306 15.604C70.2786 15.076 71.6706 14.812 73.2066 14.812C74.7426 14.812 76.1106 15.076 77.3106 15.604C78.5346 16.132 79.5666 16.84 80.4066 17.728C81.2706 18.616 81.9186 19.648 82.3506 20.824C82.8066 22 83.0346 23.224 83.0346 24.496C83.0346 24.808 83.0226 25.108 82.9986 25.396C82.9986 25.684 82.9746 25.924 82.9266 26.116H68.3466C68.4186 26.86 68.5986 27.52 68.8866 28.096C69.1746 28.672 69.5466 29.164 70.0026 29.572C70.4586 29.98 70.9746 30.292 71.5506 30.508C72.1266 30.724 72.7266 30.832 73.3506 30.832C74.3106 30.832 75.2106 30.604 76.0506 30.148C76.9146 29.668 77.5026 29.044 77.8146 28.276L81.9546 29.428C81.2586 30.868 80.1426 32.056 78.6066 32.992C77.0946 33.904 75.2826 34.36 73.1706 34.36ZM78.0666 22.984C77.9466 21.568 77.4186 20.44 76.4826 19.6C75.5706 18.736 74.4546 18.304 73.1346 18.304C72.4866 18.304 71.8746 18.424 71.2986 18.664C70.7466 18.88 70.2546 19.192 69.8226 19.6C69.3906 20.008 69.0306 20.5 68.7426 21.076C68.4786 21.652 68.3226 22.288 68.2746 22.984H78.0666ZM98.8613 34L93.3893 25.828L90.7973 28.384V34H85.9733V7.72H90.7973V23.668L98.3573 15.172H103.505L96.4853 23.164L104.009 34H98.8613ZM106.048 34V15.136H110.872V34H106.048ZM106.048 12.508V7.72H110.872V12.508H106.048ZM191.458 15.136C191.29 14.968 190.978 14.74 190.522 14.452C190.09 14.164 189.55 13.888 188.902 13.624C188.278 13.336 187.594 13.096 186.85 12.904C186.106 12.712 185.35 12.616 184.582 12.616C183.214 12.616 182.194 12.868 181.522 13.372C180.85 13.876 180.514 14.584 180.514 15.496C180.514 16.024 180.634 16.468 180.874 16.828C181.138 17.164 181.51 17.464 181.99 17.728C182.47 17.992 183.07 18.232 183.79 18.448C184.534 18.664 185.386 18.892 186.346 19.132C187.594 19.468 188.722 19.828 189.73 20.212C190.762 20.596 191.626 21.076 192.322 21.652C193.042 22.228 193.594 22.924 193.978 23.74C194.362 24.532 194.554 25.516 194.554 26.692C194.554 28.06 194.29 29.236 193.762 30.22C193.258 31.18 192.562 31.96 191.674 32.56C190.81 33.16 189.802 33.604 188.65 33.892C187.522 34.156 186.334 34.288 185.086 34.288C183.166 34.288 181.27 34 179.398 33.424C177.526 32.848 175.846 32.032 174.358 30.976L176.554 26.692C176.77 26.908 177.154 27.196 177.706 27.556C178.282 27.892 178.954 28.24 179.722 28.6C180.49 28.936 181.342 29.224 182.278 29.464C183.214 29.704 184.174 29.824 185.158 29.824C187.894 29.824 189.262 28.948 189.262 27.196C189.262 26.644 189.106 26.176 188.794 25.792C188.482 25.408 188.038 25.072 187.462 24.784C186.886 24.496 186.19 24.232 185.374 23.992C184.558 23.752 183.646 23.488 182.638 23.2C181.414 22.864 180.346 22.504 179.434 22.12C178.546 21.712 177.802 21.244 177.202 20.716C176.602 20.164 176.146 19.54 175.834 18.844C175.546 18.124 175.402 17.272 175.402 16.288C175.402 14.992 175.642 13.84 176.122 12.832C176.602 11.824 177.262 10.984 178.102 10.312C178.966 9.64 179.962 9.136 181.09 8.8C182.218 8.44 183.43 8.26 184.726 8.26C186.526 8.26 188.182 8.548 189.694 9.124C191.206 9.676 192.526 10.336 193.654 11.104L191.458 15.136ZM215.373 34H210.549V23.416C210.549 21.928 210.273 20.836 209.721 20.14C209.169 19.42 208.389 19.06 207.381 19.06C206.949 19.06 206.493 19.156 206.013 19.348C205.533 19.54 205.077 19.816 204.645 20.176C204.213 20.512 203.817 20.92 203.457 21.4C203.097 21.88 202.833 22.408 202.665 22.984V34H197.841V7.72H202.665V18.628C203.361 17.404 204.297 16.468 205.473 15.82C206.673 15.148 207.993 14.812 209.433 14.812C210.657 14.812 211.653 15.028 212.421 15.46C213.189 15.868 213.789 16.42 214.221 17.116C214.653 17.812 214.953 18.604 215.121 19.492C215.289 20.38 215.373 21.292 215.373 22.228V34ZM228.279 34.36C226.743 34.36 225.363 34.096 224.139 33.568C222.915 33.04 221.871 32.332 221.007 31.444C220.167 30.532 219.519 29.488 219.063 28.312C218.607 27.136 218.379 25.9 218.379 24.604C218.379 23.284 218.607 22.036 219.063 20.86C219.519 19.684 220.167 18.652 221.007 17.764C221.871 16.852 222.915 16.132 224.139 15.604C225.363 15.076 226.743 14.812 228.279 14.812C229.815 14.812 231.183 15.076 232.383 15.604C233.607 16.132 234.639 16.852 235.479 17.764C236.343 18.652 237.003 19.684 237.459 20.86C237.915 22.036 238.143 23.284 238.143 24.604C238.143 25.9 237.915 27.136 237.459 28.312C237.003 29.488 236.355 30.532 235.515 31.444C234.675 32.332 233.643 33.04 232.419 33.568C231.195 34.096 229.815 34.36 228.279 34.36ZM223.347 24.604C223.347 25.444 223.467 26.212 223.707 26.908C223.971 27.58 224.319 28.168 224.751 28.672C225.207 29.176 225.735 29.572 226.335 29.86C226.935 30.124 227.583 30.256 228.279 30.256C228.975 30.256 229.623 30.124 230.223 29.86C230.823 29.572 231.339 29.176 231.771 28.672C232.227 28.168 232.575 27.568 232.815 26.872C233.079 26.176 233.211 25.408 233.211 24.568C233.211 23.752 233.079 22.996 232.815 22.3C232.575 21.604 232.227 21.004 231.771 20.5C231.339 19.996 230.823 19.612 230.223 19.348C229.623 19.06 228.975 18.916 228.279 18.916C227.583 18.916 226.935 19.06 226.335 19.348C225.735 19.636 225.207 20.032 224.751 20.536C224.319 21.04 223.971 21.64 223.707 22.336C223.467 23.032 223.347 23.788 223.347 24.604ZM264.131 15.136H268.703L260.819 34H256.859L253.619 25.72L250.415 34H246.455L238.607 15.136H243.143L248.759 29.464L251.063 23.344L247.751 15.172H251.639L253.619 20.968L255.635 15.172H259.523L256.247 23.344L258.515 29.464L264.131 15.136Z" transform="translate(0 6)" fill="#333333"/>
<path d="M5.641 2.49062C3.311 0.532622 1.311 0.0456223 1.227 0.0246223C0.695002 -0.0943777 0.157002 0.228621 0.0280019 0.763621C-0.100998 1.29862 0.228002 1.83762 0.762002 1.96962C0.779002 1.97462 2.414 2.39162 4.353 4.02162C5.932 5.34962 7.005 7.21662 7.016 7.23662C7.201 7.55962 7.538 7.74262 7.887 7.74262C8.054 7.74262 8.224 7.70062 8.38 7.61162C8.859 7.33962 9.028 6.72962 8.756 6.24962C8.705 6.16062 7.503 4.05662 5.641 2.49062Z" transform="translate(122.025 36.0073)" fill="#FF0001"/>
<path d="M10.9674 0.884557C8.23841 -0.154443 3.49141 -0.437443 0.57941 0.911557C0.0784101 1.14356 -0.13959 1.73856 0.09341 2.23956C0.32641 2.73956 0.921409 2.95856 1.42141 2.72556C3.75041 1.64656 7.94641 1.87356 10.2554 2.75256C10.3724 2.79756 10.4924 2.81756 10.6114 2.81756C11.0144 2.81756 11.3944 2.57256 11.5464 2.17255C11.7424 1.65955 11.4834 1.08156 10.9674 0.884557Z" transform="translate(146.772 43.8003)" fill="#FF0001"/>
<path d="M51.9517 33.5969C51.6607 20.3609 40.6567 15.9629 37.2327 14.9149C37.5977 13.3529 37.7937 11.5179 37.8007 9.49788C38.0657 9.81688 38.3577 10.1169 38.6797 10.3869C40.5647 11.9629 42.3737 12.6239 44.8517 12.6239C44.9657 12.6239 45.0807 12.6229 45.1967 12.6199C45.5427 12.6119 45.8597 12.4259 46.0347 12.1279C46.2097 11.8299 46.2197 11.4619 46.0577 11.1559C45.6907 10.4579 45.4227 9.72388 45.1637 9.01488C44.6267 7.54689 44.0717 6.02988 42.6617 4.85288C40.7077 3.22188 38.4337 2.77888 37.2117 2.66188C37.1437 2.25188 37.0827 1.84288 37.0027 1.43088C36.9137 0.972884 36.5207 0.637885 36.0547 0.620885C35.5957 0.598885 35.1737 0.912885 35.0547 1.36388C34.9717 1.67488 34.8737 1.96688 34.7847 2.26988C31.4577 0.970885 21.0917 -2.37912 13.4607 2.79288C9.87867 5.21988 8.36667 7.09788 7.15267 8.60588C6.20567 9.78288 5.45767 10.7119 3.97167 11.6649C3.56167 11.9279 3.33667 12.3499 3.35667 12.8229C3.37167 13.1879 3.42767 14.2339 7.46067 16.5709C6.13867 17.5949 4.86467 18.8599 3.67867 20.4129C-3.58733 29.9299 1.89767 38.4459 3.38267 40.4259C3.10367 41.6529 2.66067 44.5959 4.41467 45.9539C6.48267 47.5579 9.34567 46.4739 10.5117 45.9139C11.5387 46.4439 13.9817 47.5179 16.9027 47.5179C18.7657 47.5179 20.8227 47.0779 22.8317 45.7859C25.5497 48.9329 28.9547 49.8259 30.3167 50.0659C30.9807 51.3559 32.8457 54.4739 35.4367 54.6199C35.4907 54.6229 35.5437 54.6249 35.5967 54.6249C38.0307 54.6249 39.9677 51.5139 40.6657 50.2219C43.1437 49.8679 52.2617 47.6149 51.9517 33.5969ZM29.9437 16.5899L29.2557 15.2059C32.0117 12.7129 34.1267 9.66088 35.6387 5.94388C35.9617 9.34588 35.8187 12.4479 35.2187 14.7589C34.2277 14.9749 32.2227 15.5019 29.9437 16.5899ZM21.0577 12.5909L21.9607 10.9189C22.8397 10.6539 23.7387 10.3629 24.6417 10.0489L23.4077 12.8199C22.6787 12.7149 21.8917 12.6339 21.0577 12.5909ZM27.2667 9.07088C27.9107 8.81588 28.5487 8.55088 29.1757 8.27588L28.5017 9.82388C28.2817 10.3299 28.5137 10.9199 29.0197 11.1399C29.1497 11.1969 29.2847 11.2229 29.4177 11.2229C29.8037 11.2229 30.1707 10.9979 30.3347 10.6209L31.9277 6.95888C32.4117 6.70788 32.8807 6.45088 33.3327 6.18988C31.9527 9.22288 30.1167 11.7499 27.7867 13.8279C27.2777 13.6589 26.4687 13.4169 25.4327 13.1869L27.2667 9.07088ZM41.3807 6.38688C42.3787 7.21988 42.7987 8.36988 43.2857 9.70088C43.3877 9.97989 43.4917 10.2629 43.6017 10.5479C42.2327 10.3669 41.1517 9.84688 39.9627 8.85188C38.6767 7.77588 37.9797 5.95388 37.6357 4.73188C38.6497 4.90388 40.1137 5.32988 41.3807 6.38688ZM5.66267 12.9309C7.03767 11.9369 7.85367 10.9239 8.71067 9.85888C9.89967 8.38089 11.2487 6.70688 14.5827 4.44688C20.8657 0.188884 29.6627 2.57289 33.3157 3.86589C32.6497 4.29288 31.9387 4.70988 31.1807 5.11088L27.9977 3.24988C27.5197 2.96988 26.9087 3.13188 26.6297 3.60788C26.3507 4.08488 26.5117 4.69688 26.9877 4.97588L29.0257 6.16688C28.2527 6.52088 27.4607 6.85888 26.6547 7.18188L21.3977 3.43288C20.9477 3.10988 20.3227 3.21588 20.0027 3.66588C19.6817 4.11588 19.7867 4.73988 20.2357 5.06088L24.4027 8.03288C23.4017 8.38788 22.4037 8.71388 21.4297 9.00688L16.5607 5.88288C16.0947 5.58588 15.4767 5.71888 15.1787 6.18488C14.8807 6.64988 15.0157 7.26788 15.4807 7.56688L18.8387 9.72088C16.9287 10.1989 15.2187 10.5169 13.9377 10.6239C13.3877 10.6699 12.9787 11.1529 13.0237 11.7039C13.0667 12.2259 13.5037 12.6209 14.0197 12.6209C14.0477 12.6209 14.0757 12.6199 14.1037 12.6179C15.4567 12.5059 17.2667 12.1669 19.2887 11.6579L18.7917 12.5789C15.8127 12.7009 12.4797 13.4109 9.30467 15.3149C7.77067 14.4629 6.32367 13.5139 5.66267 12.9309ZM11.0577 43.9329C10.7417 43.7349 10.3387 43.7259 10.0157 43.9169C9.98767 43.9329 7.15467 45.5449 5.63867 44.3719C5.09467 43.9499 5.04667 42.7249 5.19867 41.6159C5.51567 41.7639 5.88467 41.9599 6.27467 42.2229C7.17167 42.8239 7.81567 43.5949 7.82167 43.6029C8.01967 43.8419 8.30567 43.9659 8.59367 43.9659C8.81767 43.9659 9.04267 43.8909 9.22867 43.7369C9.65467 43.3859 9.71667 42.7579 9.36667 42.3319C9.33367 42.2919 8.53867 41.3309 7.38867 40.5609C6.47467 39.9469 5.64167 39.6079 5.14567 39.4389C4.35067 38.4849 -1.66533 30.7059 5.26767 21.6249C6.68267 19.7719 8.22967 18.3759 9.82567 17.3269C9.83367 17.3229 9.83967 17.3169 9.84767 17.3119C12.9657 15.2709 16.2757 14.5689 19.1867 14.4919C19.2637 14.5099 19.3407 14.5199 19.4177 14.5199C19.5007 14.5199 19.5817 14.5069 19.6617 14.4879C21.2007 14.4819 22.6137 14.6409 23.8107 14.8559C23.8807 14.8709 23.9507 14.9009 24.0207 14.9009C24.0287 14.9009 24.0357 14.8979 24.0437 14.8979C25.5897 15.1919 26.7467 15.5689 27.2997 15.7679L28.1727 17.5249C23.7307 20.1309 19.0187 24.9419 19.0197 33.6199C19.0207 38.3629 20.1127 41.7459 21.6337 44.1619C16.5997 47.3099 11.2907 44.0789 11.0577 43.9329ZM39.9917 48.2839C39.6177 48.2959 39.2817 48.5139 39.1197 48.8519C38.3727 50.4119 36.7017 52.6849 35.5477 52.6219C34.3797 52.5559 33.1977 51.0219 32.4757 49.8239C32.8577 49.6789 33.4377 49.4969 34.1607 49.3959C35.2317 49.2459 36.2247 49.3929 36.2347 49.3939C36.7777 49.4749 37.2907 49.1019 37.3737 48.5569C37.4567 48.0109 37.0847 47.5019 36.5397 47.4169C36.4877 47.4099 35.2567 47.2209 33.8847 47.4149C32.5667 47.5989 31.6027 48.0019 31.2157 48.1849C31.1607 48.1719 31.1057 48.1549 31.0477 48.1509C30.7847 48.1339 26.7287 47.8039 23.8567 43.9369C23.8367 43.9029 23.8297 43.8639 23.8047 43.8309C23.7827 43.8019 23.7507 43.7879 23.7257 43.7619C22.1887 41.6069 21.0227 38.3999 21.0217 33.6189C21.0207 25.3859 25.6477 21.0579 29.7907 18.8319C29.8347 18.8169 29.8807 18.8179 29.9237 18.7969C29.9747 18.7719 30.0077 18.7289 30.0527 18.6969C32.7977 17.2729 35.2807 16.7619 35.9877 16.6379C37.5647 17.0289 49.6627 20.4619 49.9527 33.6409C50.2637 47.7439 40.4087 48.2689 39.9917 48.2839Z" transform="translate(117)" fill="#FF0001"/>
</svg>
